# xmcd
# 
# Track frame offsets:
#     183
#     29213
#     47398
#     62923
#     73695
#     101988
#     116848
#     130008
#     151075
#     160995
# 
# Disc length: 2437
# 
# Revision: 13
# Processed by: cddbd v1.5.2PL0 Copyright (c) Steve Scherf et al.
# Submitted via: fre:ac v1.0.31
# 
DISCID=8c09830a
DTITLE=The Rolling Stones - Beggars Banquet
DYEAR=1968
DGENRE=Rock
TTITLE0=Sympathy for the Devil
TTITLE1=No Expectations
TTITLE2=Dear Doctor
TTITLE3=Parachute Woman
TTITLE4=Jig-Saw Puzzle
TTITLE5=Street Fighting Man
TTITLE6=Prodigal Son
TTITLE7=Stray Cat Blues
TTITLE8=Factory Girl
TTITLE9=Salt of the Earth
EXTD=
EXTT0=
EXTT1=
EXTT2=
EXTT3=
EXTT4=
EXTT5=
EXTT6=
EXTT7=
EXTT8=
EXTT9=
PLAYORDER=
